<svg width="22" height="20" viewBox="0 0 22 20" fill="none" xmlns="http://www.w3.org/2000/svg">
<g clip-path="url(#clip0)">
<path d="M21.4935 2.71932C20.7086 3.10407 19.9236 3.34435 19.1391 3.44085C20.0251 2.83494 20.6245 1.97894 20.9369 0.872911C20.1262 1.42102 19.2614 1.79602 18.3417 1.99809C17.5314 1.01708 16.5357 0.526367 15.354 0.526367C14.2233 0.526367 13.2593 0.980744 12.4614 1.88969C11.664 2.7986 11.2653 3.89736 11.2653 5.18611C11.2653 5.53229 11.299 5.88828 11.3666 6.25373C9.69557 6.15756 8.12805 5.67909 6.66375 4.81829C5.19954 3.95738 3.95688 2.81043 2.93579 1.37741C2.56445 2.09859 2.37872 2.88259 2.37872 3.72894C2.37872 4.52723 2.54326 5.26791 2.87256 5.9508C3.20163 6.63357 3.64479 7.18653 4.2018 7.60978C3.54343 7.58088 2.9274 7.38366 2.35363 7.01816V7.07587C2.35363 8.20125 2.66377 9.18929 3.28397 10.0407C3.90425 10.8921 4.68704 11.428 5.63214 11.6493C5.27766 11.755 4.91893 11.8079 4.5561 11.8079C4.31978 11.8079 4.06236 11.7839 3.78392 11.7361C4.04551 12.6689 4.52658 13.4356 5.22694 14.0371C5.92743 14.6381 6.72072 14.948 7.60686 14.9677C6.12163 16.2947 4.42961 16.9583 2.5308 16.9583C2.16785 16.9583 1.83882 16.9395 1.5434 16.9008C3.44225 18.2952 5.53513 18.9925 7.82217 18.9925C9.27369 18.9925 10.6366 18.7306 11.9105 18.2063C13.1851 17.6823 14.2736 16.9801 15.1767 16.0998C16.0796 15.2199 16.8582 14.2076 17.5122 13.0631C18.1661 11.9185 18.6533 10.7236 18.9743 9.47813C19.2948 8.23238 19.4552 6.98472 19.4552 5.73416C19.4552 5.46483 19.451 5.26296 19.4425 5.12824C20.2445 4.46492 20.928 3.66168 21.4935 2.71932Z" fill="#D3DAE3"/>
</g>
<defs>
<clipPath id="clip0">
<rect width="21.0585" height="18.9474" fill="white" transform="translate(0.732727 0.526367)"/>
</clipPath>
</defs>
</svg>
