<svg width="12" height="23" viewBox="0 0 12 23" fill="none" xmlns="http://www.w3.org/2000/svg">
<g clip-path="url(#clip0)">
<path d="M10.9379 0.00473078L8.36318 0C5.47052 0 3.60115 2.19627 3.60115 5.59556V8.1755H1.01234C0.788635 8.1755 0.607483 8.38317 0.607483 8.63935V12.3774C0.607483 12.6336 0.788843 12.841 1.01234 12.841H3.60115V22.2733C3.60115 22.5294 3.78231 22.7368 4.00601 22.7368H7.38367C7.60737 22.7368 7.78853 22.5292 7.78853 22.2733V12.841H10.8155C11.0392 12.841 11.2203 12.6336 11.2203 12.3774L11.2215 8.63935C11.2215 8.51635 11.1788 8.39856 11.103 8.3115C11.0272 8.22446 10.9239 8.1755 10.8165 8.1755H7.78853V5.98845C7.78853 4.93728 8.00728 4.40365 9.20305 4.40365L10.9375 4.40294C11.161 4.40294 11.3422 4.19525 11.3422 3.93932V0.468347C11.3422 0.212649 11.1612 0.00520386 10.9379 0.00473078Z" fill="#D3DAE3"/>
</g>
<defs>
<clipPath id="clip0">
<rect width="11.0306" height="22.7368" fill="white" transform="translate(0.607483)"/>
</clipPath>
</defs>
</svg>
