<svg width="23" height="16" viewBox="0 0 23 16" fill="none" xmlns="http://www.w3.org/2000/svg">
<g clip-path="url(#clip0)">
<path d="M22.3959 13.5961C22.3692 13.5301 22.3443 13.4754 22.3211 13.4316C21.9384 12.6422 21.2069 11.6733 20.1272 10.5245L20.1044 10.4982L20.0931 10.4853L20.0815 10.4721H20.0699C19.5798 9.93715 19.2695 9.57748 19.1396 9.39334C18.9019 9.04256 18.8486 8.68748 18.9785 8.32772C19.0703 8.05591 19.4152 7.48186 20.0123 6.60483C20.3263 6.14001 20.5751 5.76749 20.7589 5.48683C22.0837 3.46986 22.6581 2.18098 22.4818 1.61971L22.4135 1.48855C22.3675 1.40958 22.2488 1.33735 22.0575 1.27146C21.8659 1.20572 21.6209 1.19485 21.3222 1.23866L18.0142 1.26483C17.9606 1.24309 17.8841 1.24511 17.7845 1.27146C17.6848 1.29782 17.635 1.31104 17.635 1.31104L17.5774 1.34398L17.5317 1.38355C17.4935 1.40972 17.4513 1.45575 17.4053 1.52154C17.3596 1.58709 17.3214 1.66403 17.2907 1.7517C16.9306 2.81275 16.5211 3.79927 16.0616 4.71119C15.7782 5.25495 15.518 5.72621 15.2804 6.12523C15.043 6.52411 14.8439 6.81799 14.6832 7.00637C14.5223 7.19494 14.3771 7.34601 14.2466 7.46012C14.1164 7.57429 14.0171 7.62252 13.9481 7.60487C13.8792 7.58724 13.8142 7.56973 13.7527 7.55222C13.6455 7.47325 13.5594 7.36587 13.4944 7.22995C13.4291 7.09405 13.3852 6.92299 13.3623 6.71691C13.3393 6.5107 13.3259 6.33332 13.322 6.1842C13.3184 6.03526 13.32 5.82457 13.3279 5.55276C13.3358 5.2808 13.3393 5.09679 13.3393 5.00033C13.3393 4.66706 13.3451 4.30535 13.3564 3.91514C13.368 3.52491 13.3774 3.21574 13.3852 2.98796C13.3931 2.75995 13.3967 2.51874 13.3967 2.26443C13.3967 2.01012 13.3831 1.81067 13.3564 1.66592C13.3301 1.52135 13.2896 1.38102 13.2362 1.24497C13.1825 1.10907 13.1038 1.00393 13.0007 0.929299C12.8973 0.854756 12.7688 0.795601 12.6159 0.751651C12.21 0.646472 11.6931 0.589575 11.0651 0.580729C9.64087 0.563222 8.72572 0.668539 8.31986 0.896543C8.15906 0.992876 8.01354 1.1245 7.88343 1.291C7.74556 1.48399 7.72634 1.58931 7.82587 1.60663C8.28539 1.68546 8.61069 1.87402 8.80216 2.17214L8.87116 2.33012C8.92482 2.4441 8.97841 2.64589 9.03204 2.93522C9.0856 3.22453 9.12015 3.54459 9.13535 3.89518C9.17358 4.53542 9.17358 5.08348 9.13535 5.53939C9.09701 5.99549 9.06081 6.35055 9.02625 6.60487C8.99169 6.85918 8.94004 7.06525 8.87116 7.22304C8.80216 7.38089 8.75625 7.47735 8.73324 7.51237C8.71027 7.54738 8.69112 7.56945 8.67592 7.5781C8.57638 7.62178 8.47287 7.64404 8.36573 7.64404C8.25843 7.64404 8.12833 7.58258 7.9752 7.45976C7.82213 7.33693 7.66325 7.16822 7.49858 6.95335C7.33391 6.73843 7.14821 6.43809 6.94138 6.0523C6.73471 5.6665 6.52027 5.21054 6.29819 4.68442L6.11445 4.30286C5.99959 4.05739 5.84269 3.69998 5.64359 3.23093C5.44437 2.76171 5.26827 2.30782 5.11519 1.86936C5.05399 1.68522 4.96206 1.54503 4.83957 1.44856L4.78208 1.40899C4.74386 1.37397 4.6825 1.33679 4.59834 1.29717C4.51405 1.2576 4.42611 1.22922 4.33413 1.21176L1.18687 1.23793C0.865259 1.23793 0.647044 1.32136 0.532142 1.488L0.486158 1.56682C0.463186 1.61073 0.451599 1.68085 0.451599 1.77737C0.451599 1.87383 0.474571 1.99224 0.520556 2.13243C0.979999 3.36897 1.47963 4.56151 2.01946 5.71022C2.55929 6.85895 3.02838 7.78428 3.42647 8.48538C3.82464 9.18699 4.2305 9.84916 4.64404 10.4716C5.05758 11.0942 5.33131 11.4932 5.46525 11.6685C5.59934 11.8442 5.70466 11.9754 5.78122 12.0631L6.06843 12.3787C6.25222 12.5893 6.52208 12.8413 6.87817 13.1351C7.23434 13.429 7.62865 13.7182 8.0613 14.0034C8.49402 14.2883 8.99745 14.5206 9.57183 14.7003C10.1461 14.8802 10.7051 14.9525 11.2488 14.9176H12.5698C12.8377 14.8911 13.0406 14.7947 13.1786 14.6282L13.2243 14.5623C13.2551 14.5098 13.2838 14.4286 13.3103 14.3191C13.3372 14.2096 13.3506 14.0888 13.3506 13.9575C13.3428 13.5804 13.3678 13.2406 13.4252 12.9382C13.4824 12.6358 13.5476 12.4078 13.6206 12.2542C13.6935 12.1008 13.7758 11.9714 13.8675 11.8664C13.9593 11.7612 14.0247 11.6975 14.0631 11.6756C14.1012 11.6535 14.1317 11.6385 14.1546 11.6296C14.3384 11.5594 14.5547 11.6273 14.8038 11.8336C15.0527 12.0397 15.2862 12.2941 15.5045 12.5965C15.7228 12.8992 15.985 13.2389 16.2912 13.6158C16.5978 13.993 16.8657 14.2733 17.0953 14.4577L17.3249 14.6156C17.4784 14.7208 17.6775 14.8173 17.9226 14.905C18.1672 14.9926 18.3815 15.0146 18.5655 14.9708L21.506 14.9182C21.7968 14.9182 22.0231 14.863 22.1836 14.7536C22.3445 14.644 22.44 14.5232 22.4708 14.392C22.5016 14.2605 22.5032 14.1113 22.4767 13.9445C22.4494 13.7781 22.4226 13.6618 22.3959 13.5961Z" fill="#D3DAE3"/>
</g>
<defs>
<clipPath id="clip0">
<rect width="22.0612" height="15.1579" fill="white" transform="translate(0.451599 0.578857)"/>
</clipPath>
</defs>
</svg>
