<svg width="22" height="18" viewBox="0 0 22 18" fill="none" xmlns="http://www.w3.org/2000/svg">
<g clip-path="url(#clip0)">
<path d="M20.5362 1.76554C19.7761 0.735737 18.3726 0.315674 15.6924 0.315674H5.96304C3.22143 0.315674 1.79421 0.762833 1.03692 1.8592C0.298584 2.92818 0.298584 4.50322 0.298584 6.68312V10.838C0.298584 15.0611 1.17462 17.2054 5.96304 17.2054H15.6924C18.0167 17.2054 19.3047 16.8347 20.138 15.9259C20.9925 14.9939 21.357 13.4723 21.357 10.838V6.68312C21.357 4.38423 21.3 2.7999 20.5362 1.76554ZM13.8182 9.33418L9.40011 11.9656C9.30135 12.0245 9.19333 12.0537 9.08546 12.0537C8.96332 12.0537 8.84146 12.0162 8.73351 11.9417C8.53027 11.8014 8.40616 11.5503 8.40616 11.2795V6.03343C8.40616 5.76309 8.52992 5.51227 8.73277 5.37183C8.93568 5.23141 9.18803 5.22181 9.39855 5.34644L13.8167 7.96095C14.0414 8.09396 14.1825 8.35842 14.1829 8.64695C14.1832 8.93572 14.0427 9.20055 13.8182 9.33418Z" fill="#D3DAE3"/>
</g>
<defs>
<clipPath id="clip0">
<rect width="21.0585" height="17.6842" fill="white" transform="translate(0.298584 0.315674)"/>
</clipPath>
</defs>
</svg>
