<svg width="105" height="64" viewBox="0 0 105 64" fill="none" xmlns="http://www.w3.org/2000/svg">
<path d="M2.98787 0.903976C2.34848 1.12598 1.96484 2.23598 1.9009 4.01198C1.9009 5.49198 1.51727 10.746 1.13363 15.63C0.749995 20.514 0.430298 33.168 0.430298 43.75V62.99L13.7297 63.286C30.5458 63.656 42.2467 63.73 48.5767 63.434L53.5 63.138V57.736C53.5 53.37 53.3082 52.26 52.5409 52.26C51.7736 52.26 51.5818 53.222 51.5818 56.552V60.918L46.6585 60.622C43.9091 60.474 33.0394 60.326 22.4894 60.178L3.30757 60.03V31.54V3.04998L27.2209 3.27198C40.3924 3.34598 51.2621 3.56798 51.4539 3.71598C51.5818 3.86398 51.8376 5.86198 52.0294 8.15598C52.2212 10.45 52.6048 12.3 52.8606 12.3C53.3721 12.3 54.1394 6.82398 54.1394 3.41998V1.42198L36.4282 0.977978C17.63 0.459976 4.58636 0.459976 2.98787 0.903976Z" fill="white"/>
<path d="M67.6306 19.404C65.5845 21.106 63.7303 26.064 63.7303 30.06C63.7303 34.204 65.6485 39.162 67.8224 40.864C69.8685 42.344 70.38 41.974 69.5488 39.458C67.9503 34.648 68.0782 24.658 69.8045 19.478C70.38 17.924 69.5488 17.85 67.6306 19.404Z" fill="white"/>
<path d="M29.8424 21.92C29.8424 25.176 31.1212 26.434 32.9755 25.102C34.5739 23.918 34.51 22.216 32.9755 20.514C30.7376 18.146 29.8424 18.516 29.8424 21.92Z" fill="white"/>
<path d="M41.9909 30.43V41.9H43.9091H45.8273V30.43V18.96H43.9091H41.9909V30.43Z" fill="white"/>
<path d="M73.9606 20.07C72.2982 22.364 74.7918 26.138 76.7739 24.214C77.9888 23.03 78.1167 21.106 77.0297 19.848C76.0067 18.664 74.9197 18.738 73.9606 20.07Z" fill="white"/>
<path d="M92.1194 20.366C89.8176 21.994 88.0273 26.582 88.0273 30.652C88.0912 34.648 90.1373 39.384 92.503 40.79C94.5491 41.974 94.5491 41.974 94.0376 40.272C92.2473 33.834 92.1194 29.246 93.3982 23.4C93.9097 21.18 94.2294 19.256 94.1654 19.182C94.1015 19.108 93.1424 19.626 92.1194 20.366Z" fill="white"/>
<path d="M98.6412 22.438C99.1527 24.362 99.5364 27.914 99.5364 30.43C99.5364 32.946 99.1527 36.498 98.6412 38.422C97.874 41.456 97.874 41.752 98.8331 41.382C102.094 40.05 104.012 35.98 104.012 30.43C104.012 24.88 102.094 20.81 98.8331 19.478C97.874 19.108 97.874 19.404 98.6412 22.438Z" fill="white"/>
<path d="M18.9727 25.324C18.9727 28.284 21.6582 31.54 26.1979 34.056C32.7197 37.608 33.6788 37.904 33.6788 36.128C33.6788 32.798 30.8654 29.764 25.3667 26.952C19.0367 23.77 18.9727 23.77 18.9727 25.324Z" fill="white"/>
<path d="M73.9606 29.986C74.7918 31.836 74.7918 37.534 73.9606 40.05C73.3852 41.826 73.4491 41.974 74.7279 41.53C76.9658 40.79 79.0758 37.682 79.0758 35.166C79.0758 33.686 78.4364 32.206 77.2215 30.726C74.9836 28.21 72.8737 27.692 73.9606 29.986Z" fill="white"/>
<path d="M54.7788 36.572C54.7788 36.868 53.9476 38.2 52.9245 39.532L51.0064 41.9H53.2442C55.3543 41.9 55.4182 41.826 55.4182 38.94C55.4182 37.312 55.2903 35.98 55.0985 35.98C54.9067 35.98 54.7788 36.202 54.7788 36.572Z" fill="white"/>
<path d="M18.9727 39.162V41.9H22.3615H25.6864L23.4485 40.346C22.2336 39.458 20.6991 38.274 20.1236 37.608C19.0367 36.572 18.9727 36.646 18.9727 39.162Z" fill="white"/>
</svg>
